<svg width="20" height="20" viewBox="0 0 20 20" fill="none" xmlns="http://www.w3.org/2000/svg">
<g id="Frame">
<g id="_icons">
<path id="Vector" d="M4.41669 15.5833C4.58335 15.75 4.75002 15.8333 5.00002 15.8333C5.25002 15.8333 5.41669 15.75 5.58335 15.5833L10 11.1667L14.4167 15.5833C14.5834 15.75 14.8334 15.8333 15 15.8333C15.1667 15.8333 15.4167 15.75 15.5834 15.5833C15.9167 15.25 15.9167 14.75 15.5834 14.4167L11.1667 9.99999L15.5834 5.58332C15.9167 5.24999 15.9167 4.74999 15.5834 4.41666C15.25 4.08332 14.75 4.08332 14.4167 4.41666L10 8.83332L5.58335 4.41666C5.25002 4.08332 4.75002 4.08332 4.41669 4.41666C4.08335 4.74999 4.08335 5.24999 4.41669 5.58332L8.83335 9.99999L4.41669 14.4167C4.08335 14.75 4.08335 15.25 4.41669 15.5833Z" fill="black"/>
</g>
</g>
</svg>
