<svg width="22" height="22" viewBox="0 0 22 22" fill="none" xmlns="http://www.w3.org/2000/svg">
<g id="Frame" clip-path="url(#clip0_630_2788)">
<g id="Layer 2">
<path id="Vector" d="M13.75 19.9375H8.25C7.33832 19.9375 6.46398 19.5753 5.81932 18.9307C5.17466 18.286 4.8125 17.4117 4.8125 16.5V8.25C4.8125 8.06766 4.88493 7.8928 5.01386 7.76386C5.1428 7.63493 5.31766 7.5625 5.5 7.5625C5.68234 7.5625 5.8572 7.63493 5.98614 7.76386C6.11507 7.8928 6.1875 8.06766 6.1875 8.25V16.5C6.1875 17.047 6.4048 17.5716 6.79159 17.9584C7.17839 18.3452 7.70299 18.5625 8.25 18.5625H13.75C14.297 18.5625 14.8216 18.3452 15.2084 17.9584C15.5952 17.5716 15.8125 17.047 15.8125 16.5V8.25C15.8125 8.06766 15.8849 7.8928 16.0139 7.76386C16.1428 7.63493 16.3177 7.5625 16.5 7.5625C16.6823 7.5625 16.8572 7.63493 16.9861 7.76386C17.1151 7.8928 17.1875 8.06766 17.1875 8.25V16.5C17.1875 17.4117 16.8253 18.286 16.1807 18.9307C15.536 19.5753 14.6617 19.9375 13.75 19.9375Z" fill="black"/>
<path id="Vector_2" d="M17.875 6.1875H4.125C3.94266 6.1875 3.7678 6.11507 3.63886 5.98614C3.50993 5.8572 3.4375 5.68234 3.4375 5.5C3.4375 5.31766 3.50993 5.1428 3.63886 5.01386C3.7678 4.88493 3.94266 4.8125 4.125 4.8125H17.875C18.0573 4.8125 18.2322 4.88493 18.3611 5.01386C18.4901 5.1428 18.5625 5.31766 18.5625 5.5C18.5625 5.68234 18.4901 5.8572 18.3611 5.98614C18.2322 6.11507 18.0573 6.1875 17.875 6.1875Z" fill="black"/>
<path id="Vector_3" d="M13.75 6.1875H8.25C8.06766 6.1875 7.8928 6.11507 7.76386 5.98614C7.63493 5.8572 7.5625 5.68234 7.5625 5.5V4.125C7.5625 3.57799 7.7798 3.05339 8.16659 2.66659C8.55339 2.2798 9.07799 2.0625 9.625 2.0625H12.375C12.922 2.0625 13.4466 2.2798 13.8334 2.66659C14.2202 3.05339 14.4375 3.57799 14.4375 4.125V5.5C14.4375 5.68234 14.3651 5.8572 14.2361 5.98614C14.1072 6.11507 13.9323 6.1875 13.75 6.1875ZM8.9375 4.8125H13.0625V4.125C13.0625 3.94266 12.9901 3.7678 12.8611 3.63886C12.7322 3.50993 12.5573 3.4375 12.375 3.4375H9.625C9.44266 3.4375 9.2678 3.50993 9.13886 3.63886C9.00993 3.7678 8.9375 3.94266 8.9375 4.125V4.8125Z" fill="black"/>
<path id="Vector_4" d="M9.625 15.8125C9.44266 15.8125 9.2678 15.7401 9.13886 15.6111C9.00993 15.4822 8.9375 15.3073 8.9375 15.125V10.3125C8.9375 10.1302 9.00993 9.9553 9.13886 9.82636C9.2678 9.69743 9.44266 9.625 9.625 9.625C9.80734 9.625 9.9822 9.69743 10.1111 9.82636C10.2401 9.9553 10.3125 10.1302 10.3125 10.3125V15.125C10.3125 15.3073 10.2401 15.4822 10.1111 15.6111C9.9822 15.7401 9.80734 15.8125 9.625 15.8125Z" fill="black"/>
<path id="Vector_5" d="M12.375 15.8125C12.1927 15.8125 12.0178 15.7401 11.8889 15.6111C11.7599 15.4822 11.6875 15.3073 11.6875 15.125V10.3125C11.6875 10.1302 11.7599 9.9553 11.8889 9.82636C12.0178 9.69743 12.1927 9.625 12.375 9.625C12.5573 9.625 12.7322 9.69743 12.8611 9.82636C12.9901 9.9553 13.0625 10.1302 13.0625 10.3125V15.125C13.0625 15.3073 12.9901 15.4822 12.8611 15.6111C12.7322 15.7401 12.5573 15.8125 12.375 15.8125Z" fill="black"/>
</g>
</g>
<defs>
<clipPath id="clip0_630_2788">
<rect width="22" height="22" fill="white"/>
</clipPath>
</defs>
</svg>
