<svg width="22" height="22" viewBox="0 0 22 22" fill="none" xmlns="http://www.w3.org/2000/svg">
<g id="Layer_1">
<path id="Vector" d="M17.973 17.1838C17.973 17.9914 17.3167 18.6725 16.5091 18.6725H4.79503C3.98744 18.6725 3.33111 17.9914 3.33111 17.1838V5.46974C3.33111 4.66215 3.98744 4.02965 4.79503 4.02965H11.6279V3.05432H4.79503C3.44936 3.05432 2.35486 4.12499 2.35486 5.47065V17.1838C2.35486 18.5295 3.44936 19.6478 4.79503 19.6478H16.5082C17.8539 19.6478 18.9484 18.5286 18.9484 17.1838V10.3748H17.9721L17.973 17.1838Z" fill="black"/>
<path id="Vector_2" d="M19.0731 2.90582C18.3361 2.16791 17.05 2.16791 16.3121 2.90582L9.76434 9.45357C9.70201 9.51591 9.65709 9.59474 9.63601 9.67999L8.94668 12.4401C8.90543 12.606 8.95401 12.782 9.07501 12.9039C9.16759 12.9965 9.29226 13.0469 9.41968 13.0469C9.45909 13.0469 9.49851 13.0423 9.53792 13.0322L12.2989 12.342C12.3851 12.3209 12.463 12.276 12.5253 12.2137L19.0731 5.66591C19.4416 5.29741 19.6451 4.80699 19.6451 4.28541C19.6451 3.76382 19.4425 3.27432 19.0731 2.90582ZM11.9313 11.4281L10.0907 11.8882L10.5508 10.0476L15.9674 4.63099L17.3479 6.01149L11.9313 11.4281ZM18.3828 4.97566L18.0382 5.32032L16.6577 3.93982L17.0023 3.59516C17.3708 3.22666 18.0143 3.22666 18.3828 3.59516C18.5671 3.77941 18.6688 4.02416 18.6688 4.28541C18.6688 4.54666 18.5671 4.79141 18.3828 4.97566Z" fill="black"/>
</g>
</svg>
