<svg width="18" height="18" viewBox="0 0 18 18" fill="none" xmlns="http://www.w3.org/2000/svg">
<g id="Layer_1">
<path id="Vector" d="M1.10336 9.00031C1.10336 9.23601 1.16229 9.41279 1.33907 9.58957C1.51584 9.76634 1.69262 9.82527 1.92832 9.82527L8.17443 9.82527L8.17443 16.0714C8.17443 16.3071 8.29228 16.5428 8.41013 16.6606C8.52799 16.7785 8.76369 16.8963 8.99939 16.8963C9.47079 16.8963 9.82435 16.5428 9.82435 16.0714L9.82435 9.82527L16.0705 9.82527C16.5419 9.82527 16.8954 9.47172 16.8954 9.00031C16.8954 8.52891 16.5419 8.17535 16.0705 8.17535L9.82435 8.17535L9.82435 1.92924C9.82435 1.45784 9.47079 1.10429 8.99939 1.10429C8.52799 1.10429 8.17443 1.45784 8.17443 1.92924L8.17443 8.17535L1.92832 8.17535C1.45692 8.17535 1.10336 8.52891 1.10336 9.00031Z" fill="#8E96A3"/>
</g>
</svg>
