<svg width="8" height="8" viewBox="0 0 8 8" fill="none" xmlns="http://www.w3.org/2000/svg">
<path d="M4.00002 0.666672C3.34075 0.666672 2.69629 0.862168 2.14812 1.22844C1.59996 1.59471 1.17272 2.11531 0.920423 2.72439C0.668131 3.33348 0.60212 4.0037 0.730738 4.65031C0.859355 5.29691 1.17682 5.89085 1.643 6.35703C2.10917 6.8232 2.70312 7.14067 3.34972 7.26929C3.99632 7.39791 4.66655 7.3319 5.27563 7.0796C5.88472 6.82731 6.40532 6.40007 6.77159 5.85191C7.13786 5.30374 7.33335 4.65928 7.33335 4C7.33335 3.56227 7.24714 3.12881 7.07962 2.72439C6.9121 2.31997 6.66657 1.95251 6.35704 1.64298C6.04752 1.33345 5.68005 1.08792 5.27563 0.920407C4.87122 0.752891 4.43776 0.666672 4.00002 0.666672ZM5.07002 4.59667C5.10126 4.62766 5.12606 4.66453 5.14299 4.70515C5.15991 4.74577 5.16862 4.78933 5.16862 4.83334C5.16862 4.87734 5.15991 4.92091 5.14299 4.96153C5.12606 5.00215 5.10126 5.03902 5.07002 5.07C5.03903 5.10125 5.00217 5.12605 4.96155 5.14297C4.92093 5.15989 4.87736 5.1686 4.83336 5.1686C4.78935 5.1686 4.74578 5.15989 4.70516 5.14297C4.66454 5.12605 4.62768 5.10125 4.59669 5.07L4.00002 4.47L3.40336 5.07C3.37237 5.10125 3.3355 5.12605 3.29488 5.14297C3.25426 5.15989 3.21069 5.1686 3.16669 5.1686C3.12268 5.1686 3.07912 5.15989 3.0385 5.14297C2.99788 5.12605 2.96101 5.10125 2.93002 5.07C2.89878 5.03902 2.87398 5.00215 2.85706 4.96153C2.84014 4.92091 2.83142 4.87734 2.83142 4.83334C2.83142 4.78933 2.84014 4.74577 2.85706 4.70515C2.87398 4.66453 2.89878 4.62766 2.93002 4.59667L3.53002 4L2.93002 3.40334C2.86725 3.34057 2.83199 3.25544 2.83199 3.16667C2.83199 3.0779 2.86725 2.99277 2.93002 2.93C2.99279 2.86724 3.07792 2.83197 3.16669 2.83197C3.25546 2.83197 3.34059 2.86724 3.40336 2.93L4.00002 3.53L4.59669 2.93C4.65946 2.86724 4.74459 2.83197 4.83336 2.83197C4.92212 2.83197 5.00725 2.86724 5.07002 2.93C5.13279 2.99277 5.16805 3.0779 5.16805 3.16667C5.16805 3.25544 5.13279 3.34057 5.07002 3.40334L4.47002 4L5.07002 4.59667Z" fill="#005686"/>
</svg>
