<svg width="18" height="18" viewBox="0 0 18 18" fill="none" xmlns="http://www.w3.org/2000/svg">
<g id="Layer_1">
<path id="Vector" d="M1.1033 9.00033C1.1033 9.23603 1.16223 9.41281 1.339 9.58958C1.51578 9.76636 1.69256 9.82529 1.92826 9.82529L8.17437 9.82528L8.17437 16.0714C8.17437 16.3071 8.29222 16.5428 8.41007 16.6607C8.52792 16.7785 8.76363 16.8964 8.99933 16.8964C9.47073 16.8964 9.82429 16.5428 9.82429 16.0714L9.82429 9.82528L16.0704 9.82529C16.5418 9.82529 16.8954 9.47173 16.8954 9.00033C16.8954 8.52892 16.5418 8.17537 16.0704 8.17537L9.82429 8.17537L9.82429 1.92926C9.82429 1.45785 9.47073 1.1043 8.99933 1.1043C8.52792 1.1043 8.17437 1.45785 8.17437 1.92926L8.17437 8.17537L1.92826 8.17537C1.45686 8.17537 1.1033 8.52892 1.1033 9.00033Z" fill="#8E96A3"/>
</g>
</svg>
