<svg width="114" height="74" viewBox="0 0 114 74" fill="none" xmlns="http://www.w3.org/2000/svg">
<path d="M55.5067 3.5H45.3334V24.5H68.6667V7H56.6734L55.5067 3.5ZM61.34 15.505L59.695 17.15L58.1667 15.645V19.8333H55.8334V15.645L54.3284 17.1617L52.6717 15.505L57 11.1883L61.34 15.505Z" fill="#FDA5A3"/>
<path d="M37.1348 52.084C35.8842 52.084 34.8995 51.7247 34.1808 51.006C33.4622 50.2873 33.1028 49.2233 33.1028 47.814V42.2H34.1388V47.772C34.1388 48.9293 34.4002 49.7833 34.9228 50.334C35.4455 50.8847 36.1828 51.16 37.1348 51.16C38.0962 51.16 38.8382 50.8847 39.3608 50.334C39.8835 49.7833 40.1448 48.9293 40.1448 47.772V42.2H41.1528V47.814C41.1528 49.2233 40.7935 50.2873 40.0748 51.006C39.3655 51.7247 38.3855 52.084 37.1348 52.084ZM47.8587 52.07C47.224 52.07 46.65 51.9253 46.1367 51.636C45.6234 51.3373 45.2127 50.9127 44.9047 50.362C44.606 49.802 44.4567 49.1207 44.4567 48.318C44.4567 47.5153 44.606 46.8387 44.9047 46.288C45.2034 45.728 45.6094 45.3033 46.1227 45.014C46.636 44.7247 47.2147 44.58 47.8587 44.58C48.5587 44.58 49.184 44.7387 49.7347 45.056C50.2947 45.364 50.7334 45.8027 51.0507 46.372C51.368 46.932 51.5267 47.5807 51.5267 48.318C51.5267 49.0647 51.368 49.718 51.0507 50.278C50.7334 50.838 50.2947 51.2767 49.7347 51.594C49.184 51.9113 48.5587 52.07 47.8587 52.07ZM44.0647 54.716V44.65H45.0167V46.862L44.9187 48.332L45.0587 49.816V54.716H44.0647ZM47.7887 51.188C48.3114 51.188 48.778 51.0713 49.1887 50.838C49.5994 50.5953 49.926 50.2593 50.1687 49.83C50.4114 49.3913 50.5327 48.8873 50.5327 48.318C50.5327 47.7487 50.4114 47.2493 50.1687 46.82C49.926 46.3907 49.5994 46.0547 49.1887 45.812C48.778 45.5693 48.3114 45.448 47.7887 45.448C47.266 45.448 46.7947 45.5693 46.3747 45.812C45.964 46.0547 45.6374 46.3907 45.3947 46.82C45.1614 47.2493 45.0447 47.7487 45.0447 48.318C45.0447 48.8873 45.1614 49.3913 45.3947 49.83C45.6374 50.2593 45.964 50.5953 46.3747 50.838C46.7947 51.0713 47.266 51.188 47.7887 51.188ZM53.553 52V41.612H54.547V52H53.553ZM60.3088 52.07C59.5994 52.07 58.9601 51.9113 58.3908 51.594C57.8308 51.2673 57.3874 50.824 57.0608 50.264C56.7341 49.6947 56.5708 49.046 56.5708 48.318C56.5708 47.5807 56.7341 46.932 57.0608 46.372C57.3874 45.812 57.8308 45.3733 58.3908 45.056C58.9508 44.7387 59.5901 44.58 60.3088 44.58C61.0368 44.58 61.6808 44.7387 62.2408 45.056C62.8101 45.3733 63.2534 45.812 63.5708 46.372C63.8974 46.932 64.0608 47.5807 64.0608 48.318C64.0608 49.046 63.8974 49.6947 63.5708 50.264C63.2534 50.824 62.8101 51.2673 62.2408 51.594C61.6714 51.9113 61.0274 52.07 60.3088 52.07ZM60.3088 51.188C60.8408 51.188 61.3121 51.0713 61.7228 50.838C62.1334 50.5953 62.4554 50.2593 62.6888 49.83C62.9314 49.3913 63.0528 48.8873 63.0528 48.318C63.0528 47.7393 62.9314 47.2353 62.6888 46.806C62.4554 46.3767 62.1334 46.0453 61.7228 45.812C61.3121 45.5693 60.8454 45.448 60.3228 45.448C59.8001 45.448 59.3334 45.5693 58.9228 45.812C58.5121 46.0453 58.1854 46.3767 57.9428 46.806C57.7001 47.2353 57.5788 47.7393 57.5788 48.318C57.5788 48.8873 57.7001 49.3913 57.9428 49.83C58.1854 50.2593 58.5121 50.5953 58.9228 50.838C59.3334 51.0713 59.7954 51.188 60.3088 51.188ZM70.6551 52V50.376L70.6131 50.11V47.394C70.6131 46.7687 70.4358 46.288 70.0811 45.952C69.7358 45.616 69.2178 45.448 68.5271 45.448C68.0511 45.448 67.5984 45.5273 67.1691 45.686C66.7398 45.8447 66.3758 46.0547 66.0771 46.316L65.6291 45.574C66.0024 45.2567 66.4504 45.014 66.9731 44.846C67.4958 44.6687 68.0464 44.58 68.6251 44.58C69.5771 44.58 70.3098 44.818 70.8231 45.294C71.3458 45.7607 71.6071 46.4747 71.6071 47.436V52H70.6551ZM68.1211 52.07C67.5704 52.07 67.0898 51.9813 66.6791 51.804C66.2778 51.6173 65.9698 51.3653 65.7551 51.048C65.5404 50.7213 65.4331 50.348 65.4331 49.928C65.4331 49.5453 65.5218 49.2 65.6991 48.892C65.8858 48.5747 66.1844 48.3227 66.5951 48.136C67.0151 47.94 67.5751 47.842 68.2751 47.842H70.8091V48.584H68.3031C67.5938 48.584 67.0991 48.71 66.8191 48.962C66.5484 49.214 66.4131 49.5267 66.4131 49.9C66.4131 50.32 66.5764 50.656 66.9031 50.908C67.2298 51.16 67.6871 51.286 68.2751 51.286C68.8351 51.286 69.3158 51.16 69.7171 50.908C70.1278 50.6467 70.4264 50.2733 70.6131 49.788L70.8371 50.474C70.6504 50.9593 70.3238 51.3467 69.8571 51.636C69.3998 51.9253 68.8211 52.07 68.1211 52.07ZM77.2329 52.07C76.5329 52.07 75.9029 51.9113 75.3429 51.594C74.7922 51.2767 74.3582 50.838 74.0409 50.278C73.7236 49.7087 73.5649 49.0553 73.5649 48.318C73.5649 47.5713 73.7236 46.918 74.0409 46.358C74.3582 45.798 74.7922 45.364 75.3429 45.056C75.9029 44.7387 76.5329 44.58 77.2329 44.58C77.8769 44.58 78.4509 44.7247 78.9549 45.014C79.4682 45.3033 79.8742 45.728 80.1729 46.288C80.4809 46.8387 80.6349 47.5153 80.6349 48.318C80.6349 49.1113 80.4856 49.788 80.1869 50.348C79.8882 50.908 79.4822 51.3373 78.9689 51.636C78.4649 51.9253 77.8862 52.07 77.2329 52.07ZM77.3029 51.188C77.8256 51.188 78.2922 51.0713 78.7029 50.838C79.1229 50.5953 79.4496 50.2593 79.6829 49.83C79.9256 49.3913 80.0469 48.8873 80.0469 48.318C80.0469 47.7393 79.9256 47.2353 79.6829 46.806C79.4496 46.3767 79.1229 46.0453 78.7029 45.812C78.2922 45.5693 77.8256 45.448 77.3029 45.448C76.7896 45.448 76.3276 45.5693 75.9169 45.812C75.5062 46.0453 75.1796 46.3767 74.9369 46.806C74.6942 47.2353 74.5729 47.7393 74.5729 48.318C74.5729 48.8873 74.6942 49.3913 74.9369 49.83C75.1796 50.2593 75.5062 50.5953 75.9169 50.838C76.3276 51.0713 76.7896 51.188 77.3029 51.188ZM80.0749 52V49.788L80.1729 48.304L80.0329 46.82V41.612H81.0269V52H80.0749ZM6.25831 70.07C5.53031 70.07 4.87698 69.9113 4.29831 69.594C3.72898 69.2673 3.28098 68.824 2.95431 68.264C2.62765 67.6947 2.46431 67.046 2.46431 66.318C2.46431 65.5807 2.62765 64.932 2.95431 64.372C3.28098 63.812 3.72898 63.3733 4.29831 63.056C4.87698 62.7387 5.53031 62.58 6.25831 62.58C6.88365 62.58 7.44831 62.7013 7.95231 62.944C8.45631 63.1867 8.85298 63.5507 9.14231 64.036L8.40031 64.54C8.14831 64.1667 7.83565 63.8913 7.46231 63.714C7.08898 63.5367 6.68298 63.448 6.24431 63.448C5.72165 63.448 5.25031 63.5693 4.83031 63.812C4.41031 64.0453 4.07898 64.3767 3.83631 64.806C3.59365 65.2353 3.47231 65.7393 3.47231 66.318C3.47231 66.8967 3.59365 67.4007 3.83631 67.83C4.07898 68.2593 4.41031 68.5953 4.83031 68.838C5.25031 69.0713 5.72165 69.188 6.24431 69.188C6.68298 69.188 7.08898 69.0993 7.46231 68.922C7.83565 68.7447 8.14831 68.474 8.40031 68.11L9.14231 68.614C8.85298 69.09 8.45631 69.454 7.95231 69.706C7.44831 69.9487 6.88365 70.07 6.25831 70.07ZM15.701 70V68.376L15.659 68.11V65.394C15.659 64.7687 15.4817 64.288 15.127 63.952C14.7817 63.616 14.2637 63.448 13.573 63.448C13.097 63.448 12.6443 63.5273 12.215 63.686C11.7857 63.8447 11.4217 64.0547 11.123 64.316L10.675 63.574C11.0483 63.2567 11.4963 63.014 12.019 62.846C12.5417 62.6687 13.0923 62.58 13.671 62.58C14.623 62.58 15.3557 62.818 15.869 63.294C16.3917 63.7607 16.653 64.4747 16.653 65.436V70H15.701ZM13.167 70.07C12.6163 70.07 12.1357 69.9813 11.725 69.804C11.3237 69.6173 11.0157 69.3653 10.801 69.048C10.5863 68.7213 10.479 68.348 10.479 67.928C10.479 67.5453 10.5677 67.2 10.745 66.892C10.9317 66.5747 11.2303 66.3227 11.641 66.136C12.061 65.94 12.621 65.842 13.321 65.842H15.855V66.584H13.349C12.6397 66.584 12.145 66.71 11.865 66.962C11.5943 67.214 11.459 67.5267 11.459 67.9C11.459 68.32 11.6223 68.656 11.949 68.908C12.2757 69.16 12.733 69.286 13.321 69.286C13.881 69.286 14.3617 69.16 14.763 68.908C15.1737 68.6467 15.4723 68.2733 15.659 67.788L15.883 68.474C15.6963 68.9593 15.3697 69.3467 14.903 69.636C14.4457 69.9253 13.867 70.07 13.167 70.07ZM21.6768 70.07C20.9861 70.07 20.4541 69.8833 20.0808 69.51C19.7075 69.1367 19.5208 68.6093 19.5208 67.928V61.026H20.5148V67.872C20.5148 68.3013 20.6221 68.6327 20.8368 68.866C21.0608 69.0993 21.3781 69.216 21.7888 69.216C22.2275 69.216 22.5915 69.09 22.8808 68.838L23.2308 69.552C23.0348 69.7293 22.7968 69.86 22.5168 69.944C22.2461 70.028 21.9661 70.07 21.6768 70.07ZM18.2048 63.476V62.65H22.7548V63.476H18.2048ZM27.9025 70.07C27.1372 70.07 26.4652 69.9113 25.8865 69.594C25.3079 69.2673 24.8552 68.824 24.5285 68.264C24.2019 67.6947 24.0385 67.046 24.0385 66.318C24.0385 65.59 24.1925 64.946 24.5005 64.386C24.8179 63.826 25.2472 63.3873 25.7885 63.07C26.3392 62.7433 26.9552 62.58 27.6365 62.58C28.3272 62.58 28.9385 62.7387 29.4705 63.056C30.0119 63.364 30.4365 63.8027 30.7445 64.372C31.0525 64.932 31.2065 65.5807 31.2065 66.318C31.2065 66.3647 31.2019 66.416 31.1925 66.472C31.1925 66.5187 31.1925 66.57 31.1925 66.626H24.7945V65.884H30.6605L30.2685 66.178C30.2685 65.646 30.1519 65.1747 29.9185 64.764C29.6945 64.344 29.3865 64.0173 28.9945 63.784C28.6025 63.5507 28.1499 63.434 27.6365 63.434C27.1325 63.434 26.6799 63.5507 26.2785 63.784C25.8772 64.0173 25.5645 64.344 25.3405 64.764C25.1165 65.184 25.0045 65.6647 25.0045 66.206V66.36C25.0045 66.92 25.1259 67.4147 25.3685 67.844C25.6205 68.264 25.9659 68.5953 26.4045 68.838C26.8525 69.0713 27.3612 69.188 27.9305 69.188C28.3785 69.188 28.7939 69.1087 29.1765 68.95C29.5685 68.7913 29.9045 68.5487 30.1845 68.222L30.7445 68.866C30.4179 69.258 30.0072 69.5567 29.5125 69.762C29.0272 69.9673 28.4905 70.07 27.9025 70.07ZM36.3658 72.786C35.6938 72.786 35.0498 72.688 34.4338 72.492C33.8178 72.296 33.3184 72.016 32.9358 71.652L33.4398 70.896C33.7851 71.204 34.2098 71.4467 34.7138 71.624C35.2271 71.8107 35.7684 71.904 36.3378 71.904C37.2711 71.904 37.9571 71.6847 38.3958 71.246C38.8344 70.8167 39.0538 70.1447 39.0538 69.23V67.396L39.1938 66.136L39.0958 64.876V62.65H40.0478V69.104C40.0478 70.3733 39.7351 71.302 39.1098 71.89C38.4938 72.4873 37.5791 72.786 36.3658 72.786ZM36.1838 69.72C35.4838 69.72 34.8538 69.5707 34.2938 69.272C33.7338 68.964 33.2904 68.5393 32.9638 67.998C32.6464 67.4567 32.4878 66.836 32.4878 66.136C32.4878 65.436 32.6464 64.82 32.9638 64.288C33.2904 63.7467 33.7338 63.3267 34.2938 63.028C34.8538 62.7293 35.4838 62.58 36.1838 62.58C36.8371 62.58 37.4251 62.7153 37.9478 62.986C38.4704 63.2567 38.8858 63.658 39.1938 64.19C39.5018 64.722 39.6558 65.3707 39.6558 66.136C39.6558 66.9013 39.5018 67.55 39.1938 68.082C38.8858 68.614 38.4704 69.02 37.9478 69.3C37.4251 69.58 36.8371 69.72 36.1838 69.72ZM36.2818 68.838C36.8231 68.838 37.3038 68.726 37.7238 68.502C38.1438 68.2687 38.4751 67.9513 38.7178 67.55C38.9604 67.1393 39.0818 66.668 39.0818 66.136C39.0818 65.604 38.9604 65.1373 38.7178 64.736C38.4751 64.3347 38.1438 64.022 37.7238 63.798C37.3038 63.5647 36.8231 63.448 36.2818 63.448C35.7498 63.448 35.2691 63.5647 34.8398 63.798C34.4198 64.022 34.0884 64.3347 33.8458 64.736C33.6124 65.1373 33.4958 65.604 33.4958 66.136C33.4958 66.668 33.6124 67.1393 33.8458 67.55C34.0884 67.9513 34.4198 68.2687 34.8398 68.502C35.2691 68.726 35.7498 68.838 36.2818 68.838ZM45.8097 70.07C45.1004 70.07 44.4611 69.9113 43.8917 69.594C43.3317 69.2673 42.8884 68.824 42.5617 68.264C42.2351 67.6947 42.0717 67.046 42.0717 66.318C42.0717 65.5807 42.2351 64.932 42.5617 64.372C42.8884 63.812 43.3317 63.3733 43.8917 63.056C44.4517 62.7387 45.0911 62.58 45.8097 62.58C46.5377 62.58 47.1817 62.7387 47.7417 63.056C48.3111 63.3733 48.7544 63.812 49.0717 64.372C49.3984 64.932 49.5617 65.5807 49.5617 66.318C49.5617 67.046 49.3984 67.6947 49.0717 68.264C48.7544 68.824 48.3111 69.2673 47.7417 69.594C47.1724 69.9113 46.5284 70.07 45.8097 70.07ZM45.8097 69.188C46.3417 69.188 46.8131 69.0713 47.2237 68.838C47.6344 68.5953 47.9564 68.2593 48.1897 67.83C48.4324 67.3913 48.5537 66.8873 48.5537 66.318C48.5537 65.7393 48.4324 65.2353 48.1897 64.806C47.9564 64.3767 47.6344 64.0453 47.2237 63.812C46.8131 63.5693 46.3464 63.448 45.8237 63.448C45.3011 63.448 44.8344 63.5693 44.4237 63.812C44.0131 64.0453 43.6864 64.3767 43.4437 64.806C43.2011 65.2353 43.0797 65.7393 43.0797 66.318C43.0797 66.8873 43.2011 67.3913 43.4437 67.83C43.6864 68.2593 44.0131 68.5953 44.4237 68.838C44.8344 69.0713 45.2964 69.188 45.8097 69.188ZM51.5911 70V62.65H52.5431V64.652L52.4451 64.302C52.6504 63.742 52.9957 63.3173 53.4811 63.028C53.9664 62.7293 54.5684 62.58 55.2871 62.58V63.546C55.2497 63.546 55.2124 63.546 55.1751 63.546C55.1377 63.5367 55.1004 63.532 55.0631 63.532C54.2884 63.532 53.6817 63.77 53.2431 64.246C52.8044 64.7127 52.5851 65.38 52.5851 66.248V70H51.5911ZM57.4713 72.786C57.126 72.786 56.7946 72.73 56.4773 72.618C56.1693 72.506 55.9033 72.338 55.6793 72.114L56.1413 71.372C56.328 71.5493 56.5286 71.6847 56.7433 71.778C56.9673 71.8807 57.2146 71.932 57.4853 71.932C57.812 71.932 58.092 71.8387 58.3253 71.652C58.568 71.4747 58.7966 71.1573 59.0113 70.7L59.4873 69.622L59.5993 69.468L62.6233 62.65H63.6033L59.9213 70.882C59.716 71.358 59.4873 71.736 59.2353 72.016C58.9926 72.296 58.7266 72.492 58.4373 72.604C58.148 72.7253 57.826 72.786 57.4713 72.786ZM59.4313 70.21L56.0433 62.65H57.0793L60.0753 69.398L59.4313 70.21ZM68.6673 70V62.65H69.6613V70H68.6673ZM69.1713 61.026C68.9659 61.026 68.7933 60.956 68.6533 60.816C68.5133 60.676 68.4433 60.508 68.4433 60.312C68.4433 60.116 68.5133 59.9527 68.6533 59.822C68.7933 59.682 68.9659 59.612 69.1713 59.612C69.3766 59.612 69.5493 59.6773 69.6893 59.808C69.8293 59.9387 69.8993 60.102 69.8993 60.298C69.8993 60.5033 69.8293 60.676 69.6893 60.816C69.5586 60.956 69.3859 61.026 69.1713 61.026ZM81.611 62.58C82.2083 62.58 82.7263 62.6967 83.165 62.93C83.613 63.154 83.9583 63.4993 84.201 63.966C84.453 64.4327 84.579 65.0207 84.579 65.73V70H83.585V65.828C83.585 65.0533 83.3983 64.47 83.025 64.078C82.661 63.6767 82.143 63.476 81.471 63.476C80.967 63.476 80.5283 63.5833 80.155 63.798C79.791 64.0033 79.5063 64.3067 79.301 64.708C79.105 65.1 79.007 65.576 79.007 66.136V70H78.013V65.828C78.013 65.0533 77.8263 64.47 77.453 64.078C77.0797 63.6767 76.557 63.476 75.885 63.476C75.3903 63.476 74.9563 63.5833 74.583 63.798C74.2097 64.0033 73.9203 64.3067 73.715 64.708C73.519 65.1 73.421 65.576 73.421 66.136V70H72.427V62.65H73.379V64.638L73.225 64.288C73.449 63.756 73.8083 63.3407 74.303 63.042C74.807 62.734 75.3997 62.58 76.081 62.58C76.7997 62.58 77.411 62.762 77.915 63.126C78.419 63.4807 78.7457 64.0173 78.895 64.736L78.503 64.582C78.7177 63.9847 79.0957 63.504 79.637 63.14C80.1877 62.7667 80.8457 62.58 81.611 62.58ZM91.8807 70V68.376L91.8387 68.11V65.394C91.8387 64.7687 91.6613 64.288 91.3067 63.952C90.9613 63.616 90.4433 63.448 89.7527 63.448C89.2767 63.448 88.824 63.5273 88.3947 63.686C87.9653 63.8447 87.6013 64.0547 87.3027 64.316L86.8547 63.574C87.228 63.2567 87.676 63.014 88.1987 62.846C88.7213 62.6687 89.272 62.58 89.8507 62.58C90.8027 62.58 91.5353 62.818 92.0487 63.294C92.5713 63.7607 92.8327 64.4747 92.8327 65.436V70H91.8807ZM89.3467 70.07C88.796 70.07 88.3153 69.9813 87.9047 69.804C87.5033 69.6173 87.1953 69.3653 86.9807 69.048C86.766 68.7213 86.6587 68.348 86.6587 67.928C86.6587 67.5453 86.7473 67.2 86.9247 66.892C87.1113 66.5747 87.41 66.3227 87.8207 66.136C88.2407 65.94 88.8007 65.842 89.5007 65.842H92.0347V66.584H89.5287C88.8193 66.584 88.3247 66.71 88.0447 66.962C87.774 67.214 87.6387 67.5267 87.6387 67.9C87.6387 68.32 87.802 68.656 88.1287 68.908C88.4553 69.16 88.9127 69.286 89.5007 69.286C90.0607 69.286 90.5413 69.16 90.9427 68.908C91.3533 68.6467 91.652 68.2733 91.8387 67.788L92.0627 68.474C91.876 68.9593 91.5493 69.3467 91.0827 69.636C90.6253 69.9253 90.0467 70.07 89.3467 70.07ZM98.6685 72.786C97.9965 72.786 97.3525 72.688 96.7365 72.492C96.1205 72.296 95.6212 72.016 95.2385 71.652L95.7425 70.896C96.0878 71.204 96.5125 71.4467 97.0165 71.624C97.5298 71.8107 98.0712 71.904 98.6405 71.904C99.5738 71.904 100.26 71.6847 100.698 71.246C101.137 70.8167 101.356 70.1447 101.356 69.23V67.396L101.496 66.136L101.398 64.876V62.65H102.35V69.104C102.35 70.3733 102.038 71.302 101.412 71.89C100.796 72.4873 99.8818 72.786 98.6685 72.786ZM98.4865 69.72C97.7865 69.72 97.1565 69.5707 96.5965 69.272C96.0365 68.964 95.5932 68.5393 95.2665 67.998C94.9492 67.4567 94.7905 66.836 94.7905 66.136C94.7905 65.436 94.9492 64.82 95.2665 64.288C95.5932 63.7467 96.0365 63.3267 96.5965 63.028C97.1565 62.7293 97.7865 62.58 98.4865 62.58C99.1398 62.58 99.7278 62.7153 100.25 62.986C100.773 63.2567 101.188 63.658 101.496 64.19C101.804 64.722 101.958 65.3707 101.958 66.136C101.958 66.9013 101.804 67.55 101.496 68.082C101.188 68.614 100.773 69.02 100.25 69.3C99.7278 69.58 99.1398 69.72 98.4865 69.72ZM98.5845 68.838C99.1258 68.838 99.6065 68.726 100.026 68.502C100.446 68.2687 100.778 67.9513 101.02 67.55C101.263 67.1393 101.384 66.668 101.384 66.136C101.384 65.604 101.263 65.1373 101.02 64.736C100.778 64.3347 100.446 64.022 100.026 63.798C99.6065 63.5647 99.1258 63.448 98.5845 63.448C98.0525 63.448 97.5718 63.5647 97.1425 63.798C96.7225 64.022 96.3912 64.3347 96.1485 64.736C95.9152 65.1373 95.7985 65.604 95.7985 66.136C95.7985 66.668 95.9152 67.1393 96.1485 67.55C96.3912 67.9513 96.7225 68.2687 97.1425 68.502C97.5718 68.726 98.0525 68.838 98.5845 68.838ZM108.238 70.07C107.473 70.07 106.801 69.9113 106.222 69.594C105.644 69.2673 105.191 68.824 104.864 68.264C104.538 67.6947 104.374 67.046 104.374 66.318C104.374 65.59 104.528 64.946 104.836 64.386C105.154 63.826 105.583 63.3873 106.124 63.07C106.675 62.7433 107.291 62.58 107.972 62.58C108.663 62.58 109.274 62.7387 109.806 63.056C110.348 63.364 110.772 63.8027 111.08 64.372C111.388 64.932 111.542 65.5807 111.542 66.318C111.542 66.3647 111.538 66.416 111.528 66.472C111.528 66.5187 111.528 66.57 111.528 66.626H105.13V65.884H110.996L110.604 66.178C110.604 65.646 110.488 65.1747 110.254 64.764C110.03 64.344 109.722 64.0173 109.33 63.784C108.938 63.5507 108.486 63.434 107.972 63.434C107.468 63.434 107.016 63.5507 106.614 63.784C106.213 64.0173 105.9 64.344 105.676 64.764C105.452 65.184 105.34 65.6647 105.34 66.206V66.36C105.34 66.92 105.462 67.4147 105.704 67.844C105.956 68.264 106.302 68.5953 106.74 68.838C107.188 69.0713 107.697 69.188 108.266 69.188C108.714 69.188 109.13 69.1087 109.512 68.95C109.904 68.7913 110.24 68.5487 110.52 68.222L111.08 68.866C110.754 69.258 110.343 69.5567 109.848 69.762C109.363 69.9673 108.826 70.07 108.238 70.07Z" fill="#8E96A3"/>
</svg>
