<svg width="25" height="25" viewBox="0 0 25 25" fill="none" xmlns="http://www.w3.org/2000/svg">
  <path d="M1.42285 11.8294C2.44444 12.2399 3.55402 12.4746 4.72225 12.4746C9.58581 12.4746 13.5255 8.53484 13.5255 3.67128C13.5255 2.57148 13.3154 1.52056 12.9439 0.552734H1.42285V11.8294Z" fill="#FF6AAB"/>
  <path d="M22.5192 23.5215H3.52441C3.55374 19.1809 6.49143 15.5394 10.4849 14.4347L13.0218 18.829L15.5587 14.4347C19.5522 15.5394 22.4899 19.1858 22.5192 23.5215Z" fill="#393939"/>
  <path d="M19.2251 7.91855V6.56458L17.2845 6.19798C17.1819 5.75806 17.0059 5.34258 16.7762 4.9662L17.8907 3.33361L16.9326 2.37556L15.3 3.49003C14.9236 3.26029 14.5082 3.08432 14.0634 2.98167L13.6968 1.04114H12.3428L11.9811 2.98167C11.5411 3.08432 11.1208 3.26029 10.7444 3.49003L9.11181 2.37556L8.15376 3.33361L9.26822 4.9662C9.03849 5.34258 8.86252 5.75806 8.75987 6.19798L6.81934 6.56458V7.91855L8.75987 8.28515C8.86252 8.72507 9.03849 9.14055 9.26822 9.51693L8.15376 11.1495L9.11181 12.1076L10.7444 10.9931C11.1208 11.2228 11.5363 11.3988 11.9762 11.5063L12.3428 13.4469H13.6968L14.0634 11.5063C14.5033 11.4037 14.9188 11.2277 15.2951 10.9931L16.9277 12.1076L17.8858 11.1495L16.7713 9.51693C17.001 9.14055 17.177 8.72507 17.2797 8.28515L19.2251 7.91855ZM13.0222 9.27253C11.898 9.27253 10.9888 8.36336 10.9888 7.23912C10.9888 6.11488 11.898 5.20571 13.0222 5.20571C14.1464 5.20571 15.0556 6.11488 15.0556 7.23912C15.0556 8.36336 14.1464 9.27253 13.0222 9.27253Z" fill="#9BEAF9"/>
  <path d="M15.7887 14.0827C15.6322 14.0387 15.4563 14.1071 15.3732 14.2538L13.154 18.0957L10.9349 14.2538C10.8518 14.1071 10.6807 14.0387 10.5194 14.0827C6.29616 15.2509 3.32426 19.132 3.29004 23.5214C3.29004 23.6192 3.32914 23.7121 3.39757 23.7805C3.46601 23.8489 3.55888 23.888 3.65664 23.888H22.6465C22.7443 23.888 22.8372 23.8489 22.9056 23.7805C22.974 23.7121 23.0131 23.6192 23.0131 23.5214C22.9838 19.132 20.0119 15.2509 15.7887 14.0827ZM19.3178 23.1597V21.3218C19.3178 21.1214 19.1516 20.9552 18.9512 20.9552C18.7508 20.9552 18.5846 21.1214 18.5846 21.3218V23.1597H7.72346V21.3218C7.72346 21.1214 7.55726 20.9552 7.35686 20.9552C7.15645 20.9552 6.99026 21.1214 6.99026 21.3218V23.1597H4.03302C4.21387 19.3422 6.79474 16.0037 10.4461 14.8697L12.8363 19.0147C12.8998 19.1271 13.022 19.2004 13.154 19.2004C13.286 19.2004 13.4082 19.132 13.4717 19.0147L15.862 14.8697C19.5084 15.9988 22.0893 19.3422 22.2701 23.1548H19.3178V23.1597Z" fill="#505050"/>
  <path d="M6.88313 8.28065L8.59393 8.60326C8.6868 8.91609 8.809 9.21426 8.96542 9.50265L7.98293 10.9446C7.88517 11.0912 7.89983 11.2868 8.02692 11.409L8.98497 12.367C9.11206 12.4892 9.30758 12.5088 9.44933 12.411L10.8913 11.4285C11.1797 11.5849 11.4778 11.712 11.7907 11.8L12.1133 13.5157C12.1475 13.6868 12.299 13.8139 12.475 13.8139H13.829C14.0049 13.8139 14.1565 13.6868 14.1907 13.5157L14.5133 11.8C14.8261 11.7071 15.1243 11.5849 15.4127 11.4285L16.8546 12.411C17.0013 12.5088 17.1968 12.4941 17.319 12.367L18.2771 11.409C18.3993 11.2868 18.4188 11.0912 18.321 10.9446L17.3386 9.50265C17.495 9.21426 17.6221 8.91609 17.71 8.60326L19.4208 8.28065C19.5919 8.24643 19.719 8.09491 19.719 7.91894V6.56496C19.719 6.38899 19.5919 6.23746 19.4208 6.20325L17.71 5.88064C17.6172 5.56781 17.495 5.26964 17.3386 4.98125L18.321 3.54418C18.4188 3.39754 18.4041 3.20202 18.2771 3.07982L17.319 2.12177C17.1919 1.99468 16.9964 1.98002 16.8498 2.07778L15.4127 3.06515C15.1292 2.90874 14.8261 2.78654 14.5133 2.69367L14.1907 0.977978C14.1565 0.806898 14.0049 0.67981 13.829 0.67981H12.475C12.299 0.67981 12.1475 0.806898 12.1133 0.977978L11.7907 2.69367C11.4778 2.78654 11.1748 2.90874 10.8913 3.06515L9.45422 2.07778C9.30758 1.98002 9.11206 1.99468 8.98497 2.12177L8.02692 3.07982C7.90472 3.20202 7.88517 3.39754 7.98293 3.54418L8.96542 4.98125C8.809 5.26964 8.68191 5.56781 8.59393 5.88064L6.88313 6.20325C6.71205 6.23746 6.58496 6.38899 6.58496 6.56496V7.91894C6.58496 8.09491 6.71205 8.24643 6.88313 8.28065ZM7.31816 6.86802L8.95564 6.56007C9.09739 6.53563 9.20982 6.42321 9.24403 6.28635C9.3369 5.89042 9.49332 5.51404 9.70839 5.16211C9.7866 5.03991 9.78171 4.88349 9.69862 4.76129L8.76012 3.38287L9.28802 2.85497L10.6664 3.79835C10.7886 3.88145 10.9402 3.88145 11.0673 3.80813C11.4143 3.59306 11.7956 3.43664 12.1964 3.34377C12.3381 3.30955 12.4457 3.19713 12.4701 3.05538L12.7781 1.41301H13.5259L13.8339 3.05538C13.8583 3.19713 13.9707 3.30955 14.1076 3.34377C14.5084 3.44153 14.8897 3.59795 15.2367 3.80813C15.3589 3.88634 15.5153 3.88145 15.6375 3.79835L17.016 2.85497L17.5439 3.38287L16.6054 4.76129C16.5223 4.8786 16.5223 5.03502 16.5956 5.16211C16.8107 5.51404 16.9671 5.89042 17.0599 6.28635C17.0942 6.4281 17.2066 6.53563 17.3483 6.56007L18.9858 6.86802V7.61588L17.3483 7.92382C17.2066 7.94826 17.0942 8.06069 17.0599 8.19755C16.9671 8.59348 16.8107 8.97475 16.5956 9.32179C16.5174 9.44399 16.5223 9.60041 16.6054 9.72261L17.5487 11.1059L17.0208 11.6338L15.6375 10.6904C15.5202 10.6073 15.3638 10.6073 15.2416 10.6807C14.8897 10.8957 14.5133 11.0521 14.1174 11.145C13.9756 11.1792 13.8681 11.2917 13.8436 11.4334L13.5357 13.0758H12.7878L12.4799 11.4334C12.4554 11.2917 12.343 11.1792 12.2062 11.145C11.8102 11.0521 11.4339 10.8957 11.0819 10.6807C10.9597 10.6073 10.8033 10.6073 10.686 10.6904L9.30269 11.6338L8.77479 11.1059L9.71817 9.72261C9.80126 9.6053 9.80126 9.44888 9.72794 9.32179C9.51287 8.97475 9.35646 8.59348 9.26358 8.19755C9.22937 8.0558 9.11694 7.94826 8.97519 7.92382L7.33771 7.61588V6.86802H7.31816Z" fill="#505050"/>
  <path d="M13.1539 9.63998C14.4786 9.63998 15.5539 8.56462 15.5539 7.23997C15.5539 5.91533 14.4786 4.83997 13.1539 4.83997C11.8293 4.83997 10.7539 5.92021 10.7539 7.24486C10.7539 8.56951 11.8342 9.63998 13.1539 9.63998ZM13.1539 5.57805C14.0729 5.57805 14.8207 6.32592 14.8207 7.24486C14.8207 8.16381 14.0729 8.91167 13.1539 8.91167C12.235 8.91167 11.4871 8.16381 11.4871 7.24486C11.4871 6.32592 12.235 5.57805 13.1539 5.57805Z" fill="#505050"/>
</svg>