<svg width="21" height="20" viewBox="0 0 21 20" fill="none" xmlns="http://www.w3.org/2000/svg">
<g id="SVG">
<path id="Vector" fill-rule="evenodd" clip-rule="evenodd" d="M10.4998 14.1667C11.3839 14.1667 12.2317 13.8155 12.8569 13.1904C13.482 12.5652 13.8332 11.7174 13.8332 10.8333C13.8332 9.94928 13.482 9.10143 12.8569 8.47631C12.2317 7.85119 11.3839 7.5 10.4998 7.5C9.61578 7.5 8.76794 7.85119 8.14281 8.47631C7.51769 9.10143 7.1665 9.94928 7.1665 10.8333C7.1665 11.7174 7.51769 12.5652 8.14281 13.1904C8.76794 13.8155 9.61578 14.1667 10.4998 14.1667ZM10.4998 12.9167C11.0524 12.9167 11.5823 12.6972 11.973 12.3065C12.3637 11.9158 12.5832 11.3859 12.5832 10.8333C12.5832 10.2808 12.3637 9.75089 11.973 9.36019C11.5823 8.96949 11.0524 8.75 10.4998 8.75C9.9473 8.75 9.4174 8.96949 9.0267 9.36019C8.636 9.75089 8.4165 10.2808 8.4165 10.8333C8.4165 11.3859 8.636 11.9158 9.0267 12.3065C9.4174 12.6972 9.9473 12.9167 10.4998 12.9167Z" fill="#666666"/>
<path id="Vector_2" fill-rule="evenodd" clip-rule="evenodd" d="M18.5891 10.625L18.5841 10.6117C18.5558 10.5332 18.5255 10.4554 18.4933 10.3784C18.4054 10.168 18.3081 9.96166 18.2016 9.76004C17.8474 9.09085 17.4094 8.46947 16.8983 7.91087C15.655 6.55504 13.6208 5.20837 10.5 5.20837C7.37913 5.20837 5.34496 6.55504 4.10163 7.91087C3.59071 8.46977 3.15303 9.09143 2.79913 9.76087C2.66216 10.0197 2.54028 10.2863 2.43413 10.5592L2.4158 10.6117L2.41079 10.625C2.36307 10.7598 2.36307 10.9069 2.41079 11.0417L2.4158 11.055L2.43413 11.1075C2.53998 11.3807 2.66158 11.6476 2.79829 11.9067C3.06496 12.4109 3.48496 13.0825 4.10163 13.7559C5.34496 15.1117 7.37913 16.4584 10.5 16.4584C13.6208 16.4584 15.655 15.1117 16.8983 13.7559C17.4092 13.197 17.8469 12.5753 18.2008 11.9059C18.3378 11.647 18.4596 11.3805 18.5658 11.1075L18.585 11.055L18.5891 11.0417C18.6369 10.9069 18.6369 10.7598 18.5891 10.625ZM3.67079 10.8334C3.7208 10.9534 3.7983 11.1217 3.90413 11.3225C4.13246 11.7559 4.49413 12.3342 5.02329 12.9109C6.07163 14.055 7.78746 15.2084 10.5 15.2084C13.2125 15.2084 14.9283 14.055 15.9766 12.9109C16.4155 12.431 16.7916 11.8973 17.0958 11.3225C17.2016 11.1225 17.2791 10.9534 17.3291 10.8334C17.259 10.6668 17.1811 10.5036 17.0958 10.3442C16.7916 9.76944 16.4155 9.23571 15.9766 8.75587C14.9283 7.61171 13.2125 6.45837 10.5 6.45837C7.78746 6.45837 6.07163 7.61171 5.02329 8.75587C4.51121 9.31623 4.08517 9.94953 3.75913 10.635C3.72413 10.71 3.69413 10.7767 3.67079 10.8334Z" fill="#666666"/>
</g>
</svg>
