<svg width="24" height="25" viewBox="0 0 24 25" fill="none" xmlns="http://www.w3.org/2000/svg">
  <path d="M20.1519 7.10832L17.7837 4.74009C17.6487 4.60507 17.4655 4.52921 17.2746 4.52921H17.0161V7.92914H20.3628V7.61743C20.3628 7.42646 20.2869 7.24334 20.1519 7.10832Z" fill="#231F20"/>
  <path d="M10.5583 13.3325V6.63593C10.5583 6.56976 10.5045 6.51593 10.4383 6.51593H10.0543C9.98817 6.51593 9.93433 6.56976 9.93433 6.63593V13.3325C9.93433 13.5916 9.7701 13.8124 9.54004 13.8963L10.2463 15.1196L10.9526 13.8963C10.7226 13.8124 10.5583 13.5916 10.5583 13.3325Z" fill="#231F20"/>
  <path d="M13.8327 15.6095C13.8327 15.759 13.8589 15.9049 13.9092 16.0416C13.4961 16.245 13.2108 16.6705 13.2108 17.162V17.2057H4.35721C4.04405 17.2057 3.78721 16.9489 3.78721 16.6357V5.24917C3.78721 4.93602 4.04405 4.67917 4.35721 4.67917H16.2661V8.22913C16.2661 8.47698 16.4683 8.67913 16.7161 8.67913H20.2128V14.8263C20.1861 14.7936 20.1576 14.7621 20.1274 14.7318L19.8219 14.4264C19.5864 14.1908 19.2725 14.0608 18.9394 14.0608C18.8012 14.0608 18.666 14.0832 18.5382 14.1265C18.3395 13.7008 17.9074 13.4048 17.4067 13.4048H16.9747C16.4689 13.4048 16.033 13.707 15.8371 14.1398C15.6949 14.0848 15.5425 14.0561 15.3861 14.0561C15.0531 14.0561 14.7392 14.1861 14.5037 14.4216L14.1982 14.7271C13.9627 14.9626 13.8327 15.2765 13.8327 15.6095ZM13.8584 7.77913H12.3C12.0522 7.77913 11.85 7.98129 11.85 8.22913C11.85 8.47698 12.0522 8.67913 12.3 8.67913H13.8584C14.1063 8.67913 14.3084 8.47698 14.3084 8.22913C14.3084 7.98129 14.1063 7.77913 13.8584 7.77913ZM14.9144 9.09114H12.3C12.0522 9.09114 11.85 9.2933 11.85 9.54114C11.85 9.78899 12.0522 9.99114 12.3 9.99114H14.9144C15.1623 9.99114 15.3644 9.78899 15.3644 9.54114C15.3644 9.2933 15.1623 9.09114 14.9144 9.09114ZM12.3 10.4031C12.0522 10.4031 11.85 10.6053 11.85 10.8531C11.85 11.101 12.0522 11.3031 12.3 11.3031H16.0904C16.3383 11.3031 16.5404 11.101 16.5404 10.8531C16.5404 10.6053 16.3383 10.4031 16.0904 10.4031H12.3ZM8.10111 7.77913H6.54267C6.29483 7.77913 6.09267 7.98129 6.09267 8.22913C6.09267 8.47698 6.29483 8.67913 6.54267 8.67913H8.10111C8.34895 8.67913 8.55111 8.47698 8.55111 8.22913C8.55111 7.98129 8.34895 7.77913 8.10111 7.77913ZM6.54267 12.6151H8.01457C8.26241 12.6151 8.46457 12.413 8.46457 12.1651C8.46457 11.9173 8.26241 11.7151 8.01457 11.7151H6.54267C6.29483 11.7151 6.09267 11.9173 6.09267 12.1651C6.09267 12.413 6.29483 12.6151 6.54267 12.6151ZM8.01457 11.3031C8.26241 11.3031 8.46457 11.101 8.46457 10.8531C8.46457 10.6053 8.26241 10.4031 8.01457 10.4031H6.54267C6.29483 10.4031 6.09267 10.6053 6.09267 10.8531C6.09267 11.101 6.29483 11.3031 6.54267 11.3031H8.01457ZM6.5427 9.99114H8.1379C8.38575 9.99114 8.5879 9.78899 8.5879 9.54114C8.5879 9.2933 8.38575 9.09114 8.1379 9.09114H6.5427C6.29485 9.09114 6.09269 9.2933 6.09269 9.54114C6.09269 9.78899 6.29485 9.99114 6.5427 9.99114ZM11.2387 14.9011L11.7973 13.9334C11.99 13.5997 11.7492 13.1825 11.3638 13.1825H11.3084V6.63592C11.3084 6.15542 10.9189 5.76592 10.4384 5.76592H10.0544C9.57395 5.76592 9.18445 6.15542 9.18445 6.63592V13.1825H9.1291C8.74375 13.1825 8.50289 13.5997 8.69557 13.9334L9.25425 14.9011L9.81292 15.8687L9.94282 15.7937L9.81292 15.8687C10.0056 16.2025 10.4873 16.2025 10.68 15.8687L10.5501 15.7937L10.68 15.8687L11.2387 14.9011ZM17.4573 12.6151C17.7052 12.6151 17.9073 12.413 17.9073 12.1651C17.9073 11.9173 17.7052 11.7151 17.4573 11.7151H12.3C12.0522 11.7151 11.85 11.9173 11.85 12.1651C11.85 12.413 12.0522 12.6151 12.3 12.6151H17.4573Z" stroke="black" stroke-width="0.3"/>
  <path d="M19.5571 16.7323L19.6131 16.9456L19.8316 16.9167C19.8467 16.9147 19.857 16.914 19.8647 16.914C20.0017 16.914 20.1127 17.025 20.1127 17.162V17.162V17.594C20.1127 17.7309 20.0017 17.842 19.8647 17.842C19.855 17.842 19.8428 17.841 19.826 17.8384L19.6065 17.804L19.5466 18.0179C19.4884 18.2254 19.4034 18.4219 19.2955 18.6034L19.1819 18.7947L19.3586 18.9298C19.3707 18.939 19.3785 18.9458 19.384 18.9513C19.4808 19.0482 19.4808 19.2052 19.384 19.3021L19.0785 19.6075C18.9817 19.7044 18.8246 19.7044 18.7278 19.6075C18.7188 19.5985 18.7096 19.5875 18.6998 19.5735L18.5709 19.3885L18.3737 19.4977C18.2036 19.5919 18.0212 19.6663 17.8295 19.718L17.6031 19.7791L17.6496 20.009C17.6529 20.0251 17.6546 20.0417 17.6546 20.0588C17.6546 20.1957 17.5436 20.3068 17.4066 20.3068H16.9746C16.8376 20.3068 16.7266 20.1957 16.7266 20.0588C16.7266 20.0417 16.7283 20.0251 16.7316 20.009L16.7781 19.7791L16.5517 19.718C16.3466 19.6627 16.1522 19.5815 15.9723 19.4781L15.7605 19.3562L15.6338 19.5652C15.6227 19.5836 15.6106 19.5991 15.5975 19.6122C15.5007 19.7091 15.3436 19.7091 15.2468 19.6123L15.2468 19.6122L14.9413 19.3068C14.8445 19.2099 14.8445 19.0529 14.9413 18.956C14.9542 18.9432 14.9694 18.9314 14.9874 18.9203L15.1953 18.7927L15.0729 18.5817C14.9693 18.4033 14.8878 18.2106 14.8318 18.0073L14.7654 17.7665L14.5245 17.8326C14.5018 17.8389 14.4799 17.842 14.4587 17.842C14.3217 17.842 14.2107 17.7309 14.2107 17.594V17.162C14.2107 17.025 14.3217 16.914 14.4587 16.914C14.4775 16.914 14.4974 16.9165 14.5189 16.9219L14.7595 16.982L14.8215 16.7419C14.8742 16.538 14.9527 16.3443 15.0533 16.1643L15.1744 15.9476L14.9585 15.825C14.938 15.8133 14.9203 15.8 14.9052 15.7849C14.8083 15.6881 14.8083 15.5311 14.9052 15.4342L14.7284 15.2574L14.9052 15.4342L15.2107 15.1287C15.3075 15.0319 15.4645 15.0319 15.5614 15.1287L15.5615 15.1288C15.5738 15.1412 15.5853 15.1557 15.5961 15.1729L15.7261 15.3805L15.9363 15.2547C16.1263 15.1411 16.3329 15.0525 16.5517 14.9935L16.7781 14.9324L16.7316 14.7025C16.7283 14.6864 16.7266 14.6698 16.7266 14.6528C16.7266 14.5158 16.8376 14.4048 16.9746 14.4048H17.4066C17.5436 14.4048 17.6546 14.5158 17.6546 14.6528C17.6546 14.6698 17.6529 14.6864 17.6496 14.7025L17.603 14.9324L17.8295 14.9935C18.0353 15.049 18.2304 15.1306 18.4108 15.2346L18.6063 15.3473L18.7384 15.1644C18.7484 15.1505 18.7567 15.1408 18.764 15.1334C18.8608 15.0366 19.0179 15.0366 19.1147 15.1334L19.4202 15.4389C19.4202 15.4389 19.4202 15.4389 19.4202 15.4389C19.517 15.5358 19.517 15.6928 19.4202 15.7896L19.597 15.9664L19.4202 15.7896C19.4124 15.7974 19.4022 15.806 19.3882 15.816L19.2041 15.9473L19.3163 16.1436C19.4208 16.3264 19.5023 16.5239 19.5571 16.7323ZM16.0062 17.3557C16.0062 18.0099 16.5365 18.5402 17.1906 18.5402C17.8448 18.5402 18.3751 18.0099 18.3751 17.3557C18.3751 16.7016 17.8448 16.1713 17.1906 16.1713C16.5365 16.1713 16.0062 16.7016 16.0062 17.3557Z" stroke="black" stroke-width="0.5"/>
</svg>