<svg width="24" height="25" viewBox="0 0 24 25" fill="none" xmlns="http://www.w3.org/2000/svg">
  <path d="M4 4.04346H10C10.1326 4.04346 10.2598 4.09614 10.3536 4.1899C10.4473 4.28367 10.5 4.41085 10.5 4.54346V10.5435C10.5 10.6761 10.4473 10.8032 10.3536 10.897C10.2598 10.9908 10.1326 11.0435 10 11.0435H4C3.86739 11.0435 3.74021 10.9908 3.64645 10.897C3.55268 10.8032 3.5 10.6761 3.5 10.5435V4.54346C3.5 4.41085 3.55268 4.28367 3.64645 4.1899C3.74021 4.09614 3.86739 4.04346 4 4.04346ZM13.6464 14.1899C13.7402 14.0961 13.8674 14.0435 14 14.0435H20C20.1326 14.0435 20.2598 14.0961 20.3536 14.1899C20.4473 14.2837 20.5 14.4108 20.5 14.5435V20.5435C20.5 20.6761 20.4473 20.8032 20.3536 20.897C20.2598 20.9908 20.1326 21.0435 20 21.0435H14C13.8674 21.0435 13.7402 20.9908 13.6464 20.897C13.5527 20.8032 13.5 20.6761 13.5 20.5435V14.5435C13.5 14.4108 13.5527 14.2837 13.6464 14.1899ZM13.5 7.54346C13.5 5.6136 15.0701 4.04346 17 4.04346C18.9299 4.04346 20.5 5.6136 20.5 7.54346C20.5 9.47331 18.9299 11.0435 17 11.0435C15.0701 11.0435 13.5 9.47331 13.5 7.54346ZM3.5 17.5435C3.5 15.6136 5.07014 14.0435 7 14.0435C8.92986 14.0435 10.5 15.6136 10.5 17.5435C10.5 19.4733 8.92986 21.0435 7 21.0435C5.07014 21.0435 3.5 19.4733 3.5 17.5435Z" stroke="#393939"/>
</svg>