<svg width="24" height="25" viewBox="0 0 24 25" fill="none" xmlns="http://www.w3.org/2000/svg">
<g clip-path="url(#clip0_316_865)">
<path d="M18 22.2934H6C5.40326 22.2934 4.83097 22.0563 4.40901 21.6344C3.98705 21.2124 3.75 20.6401 3.75 20.0434V12.5434C3.75 12.3445 3.82902 12.1537 3.96967 12.0131C4.11032 11.8724 4.30109 11.7934 4.5 11.7934C4.69891 11.7934 4.88968 11.8724 5.03033 12.0131C5.17098 12.1537 5.25 12.3445 5.25 12.5434V20.0434C5.25 20.2423 5.32902 20.4331 5.46967 20.5737C5.61032 20.7144 5.80109 20.7934 6 20.7934H18C18.1989 20.7934 18.3897 20.7144 18.5303 20.5737C18.671 20.4331 18.75 20.2423 18.75 20.0434V12.5434C18.75 12.3445 18.829 12.1537 18.9697 12.0131C19.1103 11.8724 19.3011 11.7934 19.5 11.7934C19.6989 11.7934 19.8897 11.8724 20.0303 12.0131C20.171 12.1537 20.25 12.3445 20.25 12.5434V20.0434C20.25 20.6401 20.0129 21.2124 19.591 21.6344C19.169 22.0563 18.5967 22.2934 18 22.2934Z" fill="#393939"/>
<path d="M11.25 22.2934H7.5C7.30109 22.2934 7.11032 22.2144 6.96967 22.0737C6.82902 21.9331 6.75 21.7423 6.75 21.5434V17.0434C6.75 16.4467 6.98705 15.8744 7.40901 15.4524C7.83097 15.0304 8.40326 14.7934 9 14.7934H9.75C10.3467 14.7934 10.919 15.0304 11.341 15.4524C11.7629 15.8744 12 16.4467 12 17.0434V21.5434C12 21.7423 11.921 21.9331 11.7803 22.0737C11.6397 22.2144 11.4489 22.2934 11.25 22.2934ZM8.25 20.7934H10.5V17.0434C10.5 16.8445 10.421 16.6537 10.2803 16.5131C10.1397 16.3724 9.94891 16.2934 9.75 16.2934H9C8.80109 16.2934 8.61032 16.3724 8.46967 16.5131C8.32902 16.6537 8.25 16.8445 8.25 17.0434V20.7934Z" fill="#393939"/>
<path d="M18.75 13.2934C17.9544 13.2934 17.1913 12.9773 16.6287 12.4147C16.0661 11.8521 15.75 11.089 15.75 10.2934C15.75 10.0945 15.829 9.90372 15.9697 9.76307C16.1103 9.62241 16.3011 9.5434 16.5 9.5434C16.6989 9.5434 16.8897 9.62241 17.0303 9.76307C17.171 9.90372 17.25 10.0945 17.25 10.2934C17.25 10.6912 17.408 11.0728 17.6893 11.3541C17.9706 11.6354 18.3522 11.7934 18.75 11.7934C19.1478 11.7934 19.5294 11.6354 19.8107 11.3541C20.092 11.0728 20.25 10.6912 20.25 10.2934V9.7234L18.285 5.7934H5.715L3.75 9.7234V10.2934C3.75 10.6912 3.90804 11.0728 4.18934 11.3541C4.47064 11.6354 4.85218 11.7934 5.25 11.7934C5.64782 11.7934 6.02936 11.6354 6.31066 11.3541C6.59196 11.0728 6.75 10.6912 6.75 10.2934C6.75 10.0945 6.82902 9.90372 6.96967 9.76307C7.11032 9.62241 7.30109 9.5434 7.5 9.5434C7.69891 9.5434 7.88968 9.62241 8.03033 9.76307C8.17098 9.90372 8.25 10.0945 8.25 10.2934C8.25 11.089 7.93393 11.8521 7.37132 12.4147C6.80871 12.9773 6.04565 13.2934 5.25 13.2934C4.45435 13.2934 3.69129 12.9773 3.12868 12.4147C2.56607 11.8521 2.25 11.089 2.25 10.2934V9.5434C2.2507 9.42599 2.27896 9.31039 2.3325 9.2059L4.5825 4.7059C4.64482 4.58221 4.74018 4.4782 4.858 4.40539C4.97582 4.33258 5.1115 4.29382 5.25 4.2934H18.75C18.8885 4.29382 19.0242 4.33258 19.142 4.40539C19.2598 4.4782 19.3552 4.58221 19.4175 4.7059L21.6675 9.2059C21.721 9.31039 21.7493 9.42599 21.75 9.5434V10.2934C21.75 11.089 21.4339 11.8521 20.8713 12.4147C20.3087 12.9773 19.5456 13.2934 18.75 13.2934Z" fill="#393939"/>
<path d="M9.75 13.2934C8.95435 13.2934 8.19129 12.9773 7.62868 12.4147C7.06607 11.8521 6.75 11.089 6.75 10.2934C6.75 10.0945 6.82902 9.90372 6.96967 9.76307C7.11032 9.62241 7.30109 9.5434 7.5 9.5434C7.69891 9.5434 7.88968 9.62241 8.03033 9.76307C8.17098 9.90372 8.25 10.0945 8.25 10.2934C8.25 10.6912 8.40804 11.0728 8.68934 11.3541C8.97064 11.6354 9.35218 11.7934 9.75 11.7934C10.1478 11.7934 10.5294 11.6354 10.8107 11.3541C11.092 11.0728 11.25 10.6912 11.25 10.2934C11.25 10.0945 11.329 9.90372 11.4697 9.76307C11.6103 9.62241 11.8011 9.5434 12 9.5434C12.1989 9.5434 12.3897 9.62241 12.5303 9.76307C12.671 9.90372 12.75 10.0945 12.75 10.2934C12.75 11.089 12.4339 11.8521 11.8713 12.4147C11.3087 12.9773 10.5456 13.2934 9.75 13.2934Z" fill="#393939"/>
<path d="M14.25 13.2934C13.4544 13.2934 12.6913 12.9773 12.1287 12.4147C11.5661 11.8521 11.25 11.089 11.25 10.2934C11.25 10.0945 11.329 9.90372 11.4697 9.76307C11.6103 9.62241 11.8011 9.5434 12 9.5434C12.1989 9.5434 12.3897 9.62241 12.5303 9.76307C12.671 9.90372 12.75 10.0945 12.75 10.2934C12.75 10.6912 12.908 11.0728 13.1893 11.3541C13.4706 11.6354 13.8522 11.7934 14.25 11.7934C14.6478 11.7934 15.0294 11.6354 15.3107 11.3541C15.592 11.0728 15.75 10.6912 15.75 10.2934C15.75 10.0945 15.829 9.90372 15.9697 9.76307C16.1103 9.62241 16.3011 9.5434 16.5 9.5434C16.6989 9.5434 16.8897 9.62241 17.0303 9.76307C17.171 9.90372 17.25 10.0945 17.25 10.2934C17.25 11.089 16.9339 11.8521 16.3713 12.4147C15.8087 12.9773 15.0456 13.2934 14.25 13.2934Z" fill="#393939"/>
<path d="M16.5 17.0434H14.25C14.0511 17.0434 13.8603 16.9644 13.7197 16.8237C13.579 16.6831 13.5 16.4923 13.5 16.2934C13.5 16.0945 13.579 15.9037 13.7197 15.7631C13.8603 15.6224 14.0511 15.5434 14.25 15.5434H16.5C16.6989 15.5434 16.8897 15.6224 17.0303 15.7631C17.171 15.9037 17.25 16.0945 17.25 16.2934C17.25 16.4923 17.171 16.6831 17.0303 16.8237C16.8897 16.9644 16.6989 17.0434 16.5 17.0434Z" fill="#393939"/>
</g>
<defs>
<clipPath id="clip0_316_865">
<rect width="24" height="24" fill="white" transform="translate(0 0.543396)"/>
</clipPath>
</defs>
</svg>