<svg width="23" height="25" viewBox="0 0 23 25" fill="none" xmlns="http://www.w3.org/2000/svg">
  <path d="M11.1461 6.54397C11.7395 6.54397 12.3196 6.36801 12.813 6.03834C13.3064 5.70867 13.6909 5.24009 13.918 4.69187C14.1451 4.14364 14.2045 3.54039 14.0887 2.9584C13.973 2.3764 13.6872 1.84181 13.2676 1.42221C12.848 1.00262 12.3134 0.716873 11.7315 0.601108C11.1495 0.485342 10.5462 0.544757 9.99798 0.771839C9.44976 0.998922 8.98118 1.38347 8.65151 1.87686C8.32184 2.37025 8.14587 2.95032 8.14587 3.54372C8.14587 4.33943 8.46197 5.10256 9.02463 5.66522C9.58729 6.22788 10.3504 6.54397 11.1461 6.54397ZM11.1461 1.40067C11.57 1.40067 11.9843 1.52636 12.3367 1.76184C12.6892 1.99732 12.9638 2.33202 13.126 2.72361C13.2882 3.1152 13.3307 3.54609 13.248 3.9618C13.1653 4.37751 12.9612 4.75937 12.6615 5.05908C12.3618 5.35879 11.9799 5.56289 11.5642 5.64558C11.1485 5.72827 10.7176 5.68583 10.326 5.52363C9.93444 5.36143 9.59974 5.08675 9.36426 4.73433C9.12878 4.38191 9.00309 3.96757 9.00309 3.54372C9.00309 2.97535 9.22887 2.43026 9.63077 2.02836C10.0327 1.62646 10.5778 1.40067 11.1461 1.40067Z" fill="black"/>
  <path d="M11.573 7.39954H10.7158C9.46538 7.39954 8.26618 7.89626 7.382 8.78044C6.49782 9.66461 6.0011 10.8638 6.0011 12.1142C6.0011 12.2279 6.04626 12.3369 6.12664 12.4173C6.20701 12.4977 6.31603 12.5428 6.42971 12.5428H15.8591C15.9728 12.5428 16.0818 12.4977 16.1622 12.4173C16.2425 12.3369 16.2877 12.2279 16.2877 12.1142C16.2877 10.8638 15.791 9.66461 14.9068 8.78044C14.0226 7.89626 12.8234 7.39954 11.573 7.39954ZM6.88403 11.6856C6.98942 10.743 7.43844 9.87217 8.14529 9.23965C8.85214 8.60712 9.76725 8.2572 10.7158 8.25675H11.573C12.5215 8.2572 13.4367 8.60712 14.1435 9.23965C14.8504 9.87217 15.2994 10.743 15.4048 11.6856H6.88403Z" fill="black"/>
  <path d="M4.19893 18.9107C3.12268 18.2893 1.74647 18.6581 1.12508 19.7343C0.503701 20.8106 0.872445 22.1867 1.9487 22.8081C3.02495 23.4295 4.40116 23.0608 5.02254 21.9845C5.64392 20.9083 5.27518 19.5321 4.19893 18.9107ZM4.19893 18.9107L7.01172 14.0389" stroke="black" stroke-width="0.749995"/>
  <path d="M11.2509 20.0394C10.0082 20.0394 9.00073 21.0468 9.00073 22.2896C9.00073 23.5323 10.0082 24.5398 11.2509 24.5398C12.4937 24.5398 13.5011 23.5323 13.5011 22.2896C13.5011 21.0468 12.4937 20.0394 11.2509 20.0394ZM11.2509 20.0394V14.4139" stroke="black" stroke-width="0.749995"/>
  <path d="M18.2744 18.9107C17.1982 19.5321 16.8294 20.9082 17.4508 21.9845C18.0722 23.0607 19.4484 23.4295 20.5247 22.8081C21.6009 22.1867 21.9697 20.8105 21.3483 19.7343C20.7269 18.658 19.3507 18.2893 18.2744 18.9107ZM18.2744 18.9107L15.4617 14.0389" stroke="black" stroke-width="0.749995"/>
</svg>